<?xml version="1.0" encoding="utf-8"?>
<!-- Generator: Adobe Illustrator 22.1.0, SVG Export Plug-In . SVG Version: 6.00 Build 0)  -->
<svg version="1.1" id="Layer_1" xmlns="http://www.w3.org/2000/svg" xmlns:xlink="http://www.w3.org/1999/xlink" x="0px" y="0px"
	 viewBox="0 0 512 512" style="enable-background:new 0 0 512 512;" xml:space="preserve">
<style type="text/css">
	.st0{fill:#63F6DE;}
	.st1{fill:#D4B1C8;}
	.st2{fill:#AAF9EC;}
	.st3{fill:#FFFFFF;}
	.st4{fill:#C7429B;}
</style>
<g id="XMLID_816_">
	<g id="XMLID_1455_">
		<path id="XMLID_1522_" class="st0" d="M10,345.1h461.8V378c0,16.6-13.4,30-30,30H40c-16.6,0-30-13.4-30-30V345.1z"/>
		<path id="XMLID_1521_" class="st1" d="M10,102c0-16.6,13.4-30,30-30h401.7c16.6,0,30,13.4,30,30v243.1H10V102z"/>
		<path id="XMLID_1500_" class="st0" d="M148.9,502h184v-14c0-14.4-11.7-26-26-26H175c-14.4,0-26,11.7-26,26L148.9,502L148.9,502z"
			/>
		<rect id="XMLID_1497_" x="208.9" y="408" class="st2" width="64" height="54"/>
	</g>
	<g id="XMLID_1469_">
		<path id="XMLID_1468_" class="st0" d="M502,151.5v-42.9l0,0h-23.1c-2.5-11.5-7-22.2-13.2-31.9l0,0L482,60.3l0,0L451.7,30l0,0
			l-16.3,16.3l0,0c-9.6-6.1-20.4-10.7-31.9-13.2V10l0,0h-42.9l0,0v23.2c-11.5,2.5-22.2,7.1-31.8,13.2l0,0L312.3,30l0,0L282,60.3l0,0
			l16.4,16.4l0,0c-6.1,9.6-10.6,20.3-13.1,31.8H262l0,0v42.9l0,0h23.3c2.5,11.4,7,22.2,13.2,31.7l0,0L282,199.7l0,0l30.4,30.4l0,0
			l16.5-16.5l0,0c9.6,6.1,20.3,10.6,31.7,13.2V250l0,0h42.9l0,0v-23.3c11.5-2.5,22.2-7,31.8-13.1l0,0l16.4,16.4l0,0l30.4-30.4l0,0
			l-16.4-16.4l0,0c6.1-9.6,10.7-20.3,13.2-31.8L502,151.5L502,151.5z"/>
		<circle id="XMLID_1466_" class="st1" cx="382" cy="130" r="52"/>
	</g>
	<g id="XMLID_1663_">
		<path id="XMLID_1667_" class="st3" d="M217.7,197.2c0-3.8-0.4-7.5-1.1-11l15.5-8.9L215.2,148l-15.5,9c-5.5-4.9-12-8.7-19.1-11.1
			V128h-33.8v17.9c-7.1,2.4-13.6,6.1-19.1,11.1l-15.5-9l-16.9,29.2l15.5,8.9c-0.7,3.6-1.1,7.3-1.1,11s0.4,7.5,1.1,11L95.3,217
			l16.9,29.2l15.5-9c5.5,4.9,12,8.7,19.1,11.1v17.9h33.8v-17.9c7.1-2.4,13.6-6.1,19.1-11.1l15.5,9l16.9-29.2l-15.5-8.9
			C217.3,204.7,217.7,201,217.7,197.2z"/>
		<path id="XMLID_1666_" class="st4" d="M217.7,197.2c0-3.8-0.4-7.5-1.1-11l15.5-8.9L215.2,148l-15.5,9c-5.5-4.9-12-8.7-19.1-11.1
			V128h-33.8v17.9c-7.1,2.4-13.6,6.1-19.1,11.1l-15.5-9l-16.9,29.2l15.5,8.9c-0.7,3.6-1.1,7.3-1.1,11s0.4,7.5,1.1,11L95.3,217
			l16.9,29.2l15.5-9c5.5,4.9,12,8.7,19.1,11.1v17.9h33.8v-17.9c7.1-2.4,13.6-6.1,19.1-11.1l15.5,9l16.9-29.2l-15.5-8.9
			C217.3,204.7,217.7,201,217.7,197.2z"/>
		<g id="XMLID_709_">
			<path id="XMLID_710_" d="M240.9,365c-2.6,0-5.2,1.1-7.1,2.9c-1.9,1.9-2.9,4.4-2.9,7.1c0,2.6,1.1,5.2,2.9,7.1
				c1.9,1.9,4.4,2.9,7.1,2.9s5.2-1.1,7.1-2.9c1.9-1.9,2.9-4.4,2.9-7.1c0-2.6-1.1-5.2-2.9-7.1C246.1,366.1,243.6,365,240.9,365z"/>
			<path id="XMLID_734_" d="M431.8,335.1c-2.6,0-5.2,1.1-7.1,2.9c-1.9,1.9-2.9,4.4-2.9,7.1c0,2.6,1.1,5.2,2.9,7.1
				c1.9,1.9,4.4,2.9,7.1,2.9c2.6,0,5.2-1.1,7.1-2.9c1.9-1.9,2.9-4.4,2.9-7.1s-1.1-5.2-2.9-7.1C437,336.2,434.4,335.1,431.8,335.1z"
				/>
			<path id="XMLID_735_" d="M135.9,287c-2.6,0-5.2,1.1-7.1,2.9c-1.9,1.9-2.9,4.4-2.9,7.1s1.1,5.2,2.9,7.1c1.9,1.9,4.4,2.9,7.1,2.9
				s5.2-1.1,7.1-2.9c1.9-1.9,2.9-4.4,2.9-7.1s-1.1-5.2-2.9-7.1S138.6,287,135.9,287z"/>
			<path id="XMLID_744_" d="M512,108.5c0-5.5-4.5-10-10-10h-15.4c-2.1-7-4.9-13.8-8.4-20.3l10.9-10.9c3.9-3.9,3.9-10.2,0-14.1
				l-30.4-30.4c-3.9-3.9-10.2-3.9-14.1,0l-10.9,10.9c-6.5-3.5-13.2-6.3-20.3-8.4V9.9c0-5.5-4.5-10-10-10h-42.9c-5.5,0-10,4.5-10,10
				v15.4c-7,2.1-13.8,4.9-20.2,8.4l-10.9-10.9c-3.9-3.9-10.2-3.9-14.1,0l-30.4,30.4c-2.4,2.4-3.3,5.7-2.8,8.7H40C18,62,0,80,0,102
				v276c0,22.1,18,40,40,40h158.9v34h-24c-19.9,0-36,16.2-36,36v14c0,5.5,4.5,10,10,10h184c5.5,0,10-4.5,10-10v-14
				c0-19.9-16.2-36-36-36h-24v-34h158.8c22.1,0,40-18,40-40V214.1l7.3-7.3c1.9-1.9,2.9-4.4,2.9-7.1s-1.1-5.2-2.9-7.1l-10.9-10.9
				c3.5-6.4,6.3-13.2,8.4-20.2H502c2.7,0,5.2-1.1,7.1-2.9s2.9-4.4,2.9-7.1V108.5z M322.9,488v4h-164v-4c0-8.8,7.2-16,16-16h131.9
				C315.7,472,322.9,479.2,322.9,488z M262.9,452h-44v-34h44V452z M461.8,378c0,11-9,20-20,20H40c-11,0-20-9-20-20v-22.9h371.8
				c5.5,0,10-4.5,10-10s-4.5-10-10-10H20V307h76.3c5.5,0,10-4.5,10-10s-4.5-10-10-10H20V102c0-11,9-20,20-20h244
				c-2.6,5.3-4.8,10.8-6.5,16.5H262c-2.7,0-5.2,1.1-7.1,2.9s-2.9,4.4-2.9,7.1v42.9c0,5.5,4.5,10,10,10h15.6c2.1,7,4.9,13.7,8.3,20.1
				l-11,11c-3.9,3.9-3.9,10.2,0,14.1l30.4,30.4c3.9,3.9,10.2,3.9,14.1,0l11-11c6.4,3.5,13.2,6.2,20.1,8.3v15.6c0,5.5,4.5,10,10,10
				h42.9c5.5,0,10-4.5,10-10v-15.5c7-2.1,13.7-4.9,20.2-8.3l11,11c1.9,1.9,4.4,2.9,7.1,2.9s5.2-1.1,7.1-2.9l3-3L461.8,378L461.8,378
				z M492,141.5h-13.2c-4.7,0-8.7,3.3-9.8,7.8c-2.3,10.2-6.2,19.8-11.9,28.6c-2.5,3.9-2,9.1,1.3,12.5l9.3,9.3l-16.2,16.2l-9.4-9.4
				c-3-3-7.7-3.8-11.5-1.9c-0.3,0.2-0.6,0.3-0.9,0.5c-8.8,5.6-18.4,9.6-28.6,11.8c-4.6,1-7.9,5.1-7.9,9.8V240h-22.9v-13.3
				c0-4.7-3.3-8.8-7.8-9.8c-10.1-2.2-19.7-6.2-28.5-11.8c-1.6-1-3.5-1.6-5.4-1.6c-2.7,0-5.2,1.1-7.1,2.9l-9.4,9.4l-16.2-16.2
				l9.4-9.4c3.3-3.3,3.9-8.5,1.3-12.5c-5.6-8.8-9.6-18.4-11.8-28.5c-1-4.6-5.1-7.8-9.8-7.8h-13v-22.9h13.3c4.7,0,8.8-3.3,9.8-7.9
				c2.2-10.2,6.2-19.8,11.8-28.5c2.5-3.9,2-9.1-1.3-12.5l-9.4-9.4L312.4,44l9.3,9.3c3.4,3.4,8.7,3.8,12.6,1.3
				c8.8-5.6,18.3-9.5,28.4-11.8c4.6-1,7.8-5.1,7.8-9.8V19.8h22.9v13.1c0,4.7,3.3,8.8,7.9,9.8c10.2,2.2,19.8,6.2,28.6,11.9
				c0.3,0.2,0.6,0.4,0.9,0.5c3.8,1.9,8.5,1.2,11.5-1.9l9.3-9.3l16.2,16.2l-9.3,9.3c-0.5,0.5-0.9,1-1.2,1.5
				c-2.2,3.3-2.2,7.6-0.1,10.9c5.6,8.8,9.6,18.4,11.8,28.6c1,4.6,5.1,7.9,9.8,7.9H492V141.5L492,141.5z"/>
			<path id="XMLID_999_" d="M382,68c-34.2,0-62,27.8-62,62s27.8,62,62,62s62-27.8,62-62S416.2,68,382,68z M382,172
				c-23.2,0-42-18.8-42-42s18.8-42,42-42s42,18.8,42,42S405.2,172,382,172z"/>
			<path id="XMLID_1012_" d="M163.7,187.2c-2.6,0-5.2,1.1-7.1,2.9c-1.9,1.9-2.9,4.4-2.9,7.1c0,2.6,1.1,5.2,2.9,7.1
				c1.9,1.9,4.4,2.9,7.1,2.9c2.6,0,5.2-1.1,7.1-2.9c1.9-1.9,2.9-4.4,2.9-7.1c0-2.6-1.1-5.2-2.9-7.1
				C168.9,188.3,166.3,187.2,163.7,187.2z"/>
			<path id="XMLID_1094_" d="M241.7,179.8c0.7-2.6,0.3-5.3-1-7.6L223.8,143c-2.8-4.8-8.9-6.4-13.7-3.7l-9.6,5.6
				c-3.2-2.2-6.5-4.2-10-5.8V128c0-5.5-4.5-10-10-10h-33.8c-5.5,0-10,4.5-10,10v11.1c-3.5,1.6-6.8,3.6-10,5.8l-9.6-5.6
				c-2.3-1.3-5-1.7-7.6-1s-4.7,2.4-6.1,4.7l-16.9,29.2c-2.8,4.8-1.1,10.9,3.7,13.7l9.6,5.6c-0.2,1.9-0.3,3.8-0.3,5.8
				s0.1,3.9,0.3,5.8l-9.6,5.6c-4.8,2.8-6.4,8.9-3.7,13.7l16.9,29.2c1.3,2.3,3.5,4,6.1,4.7s5.3,0.3,7.6-1l9.6-5.6
				c3.2,2.2,6.5,4.2,10,5.8v11.1c0,5.5,4.5,10,10,10h33.8c5.5,0,10-4.5,10-10v-11.1c3.5-1.6,6.8-3.6,10-5.8l9.6,5.6
				c4.8,2.8,10.9,1.1,13.7-3.7l16.9-29.2c1.3-2.3,1.7-5,1-7.6s-2.4-4.7-4.7-6.1l-9.6-5.6c0.2-1.9,0.3-3.8,0.3-5.8s-0.1-3.9-0.3-5.8
				l9.6-5.6C239.4,184.6,241,182.4,241.7,179.8z M206.8,188.2c0.6,2.9,0.9,6,0.9,9s-0.3,6.1-0.9,9c-0.9,4.2,1.1,8.5,4.8,10.7
				l6.8,3.9l-6.9,11.9l-6.8-4c-3.7-2.2-8.4-1.7-11.7,1.2c-4.6,4.1-9.8,7.1-15.6,9c-4.1,1.3-6.9,5.2-6.9,9.5v7.9h-13.8v-7.9
				c0-4.3-2.8-8.2-6.9-9.5c-5.8-1.9-11-4.9-15.6-9c-3.2-2.9-7.9-3.4-11.7-1.2l-6.8,4l-6.9-11.9l6.8-3.9c3.7-2.2,5.7-6.5,4.8-10.7
				c-0.6-2.9-0.9-6-0.9-9s0.3-6.1,0.9-9c0.9-4.2-1.1-8.5-4.8-10.7l-6.8-3.9l6.9-11.9l6.8,4c3.7,2.2,8.4,1.7,11.7-1.2
				c4.6-4.1,9.8-7.1,15.6-9c4.1-1.3,6.9-5.2,6.9-9.5v-8h13.8v7.9c0,4.3,2.8,8.2,6.9,9.5c5.8,1.9,11,4.9,15.6,9
				c3.2,2.9,7.9,3.4,11.7,1.2l6.8-4l6.9,11.9l-6.8,3.9C207.8,179.7,205.9,184,206.8,188.2z"/>
		</g>
	</g>
</g>
</svg>
